<svg width="197" height="17" viewBox="0 0 197 17" fill="none" xmlns="http://www.w3.org/2000/svg">
<g filter="url(#filter0_d_10_13)">
<path d="M18 4H164" stroke="#CBDDFF"/>
<path d="M7.3457 0.294922C8.25586 0.294922 8.94531 0.625 9.41406 1.28516C9.88672 1.94141 10.123 2.91797 10.123 4.21484C10.123 5.51562 9.88281 6.49414 9.40234 7.15039C8.92578 7.80664 8.24023 8.13477 7.3457 8.13477C6.43555 8.13477 5.74414 7.80469 5.27148 7.14453C4.79883 6.48438 4.5625 5.50781 4.5625 4.21484C4.5625 2.93359 4.79883 1.96094 5.27148 1.29688C5.74414 0.628906 6.43555 0.294922 7.3457 0.294922ZM7.3457 0.886719C6.14648 0.886719 5.54688 1.99023 5.54688 4.19727C5.54688 4.74023 5.58008 5.21875 5.64648 5.63281C5.7168 6.04688 5.82422 6.39453 5.96875 6.67578C6.11328 6.95312 6.29883 7.16406 6.52539 7.30859C6.75586 7.44922 7.0293 7.51953 7.3457 7.51953C7.9707 7.51953 8.42578 7.23633 8.71094 6.66992C9 6.10352 9.14453 5.2832 9.14453 4.20898C9.14453 3.0918 8.99414 2.25977 8.69336 1.71289C8.39648 1.16211 7.94727 0.886719 7.3457 0.886719Z" fill="#CBDDFF"/>
<path d="M176.938 0.628906V7.09766C176.938 7.16406 176.941 7.21875 176.949 7.26172C176.957 7.30078 176.984 7.33398 177.031 7.36133C177.082 7.38477 177.16 7.40234 177.266 7.41406C177.371 7.42188 177.52 7.42578 177.711 7.42578H178.098V8C177.973 8 177.85 8 177.729 8C177.607 8 177.482 8 177.354 8C177.225 8 177.088 8 176.943 8C176.799 7.99609 176.641 7.99219 176.469 7.98828C176.27 7.98828 176.094 7.99023 175.941 7.99414C175.793 7.99414 175.654 7.99414 175.525 7.99414C175.396 7.99414 175.271 7.99609 175.15 8C175.029 8 174.9 8 174.764 8V7.42578H175.355C175.512 7.42578 175.633 7.41797 175.719 7.40234C175.805 7.38281 175.867 7.35742 175.906 7.32617C175.945 7.29492 175.969 7.25781 175.977 7.21484C175.984 7.17188 175.988 7.12695 175.988 7.08008V1.25586C175.754 1.37305 175.518 1.47266 175.279 1.55469C175.045 1.63672 174.812 1.70312 174.582 1.75391V1.02734C174.883 0.972656 175.178 0.894531 175.467 0.792969C175.756 0.691406 176.047 0.568359 176.34 0.423828L176.938 0.628906ZM183.037 0.294922C183.947 0.294922 184.637 0.625 185.105 1.28516C185.578 1.94141 185.814 2.91797 185.814 4.21484C185.814 5.51562 185.574 6.49414 185.094 7.15039C184.617 7.80664 183.932 8.13477 183.037 8.13477C182.127 8.13477 181.436 7.80469 180.963 7.14453C180.49 6.48438 180.254 5.50781 180.254 4.21484C180.254 2.93359 180.49 1.96094 180.963 1.29688C181.436 0.628906 182.127 0.294922 183.037 0.294922ZM183.037 0.886719C181.838 0.886719 181.238 1.99023 181.238 4.19727C181.238 4.74023 181.271 5.21875 181.338 5.63281C181.408 6.04688 181.516 6.39453 181.66 6.67578C181.805 6.95312 181.99 7.16406 182.217 7.30859C182.447 7.44922 182.721 7.51953 183.037 7.51953C183.662 7.51953 184.117 7.23633 184.402 6.66992C184.691 6.10352 184.836 5.2832 184.836 4.20898C184.836 3.0918 184.686 2.25977 184.385 1.71289C184.088 1.16211 183.639 0.886719 183.037 0.886719ZM189.729 0.294922C190.639 0.294922 191.328 0.625 191.797 1.28516C192.27 1.94141 192.506 2.91797 192.506 4.21484C192.506 5.51562 192.266 6.49414 191.785 7.15039C191.309 7.80664 190.623 8.13477 189.729 8.13477C188.818 8.13477 188.127 7.80469 187.654 7.14453C187.182 6.48438 186.945 5.50781 186.945 4.21484C186.945 2.93359 187.182 1.96094 187.654 1.29688C188.127 0.628906 188.818 0.294922 189.729 0.294922ZM189.729 0.886719C188.529 0.886719 187.93 1.99023 187.93 4.19727C187.93 4.74023 187.963 5.21875 188.029 5.63281C188.1 6.04688 188.207 6.39453 188.352 6.67578C188.496 6.95312 188.682 7.16406 188.908 7.30859C189.139 7.44922 189.412 7.51953 189.729 7.51953C190.354 7.51953 190.809 7.23633 191.094 6.66992C191.383 6.10352 191.527 5.2832 191.527 4.20898C191.527 3.0918 191.377 2.25977 191.076 1.71289C190.779 1.16211 190.33 0.886719 189.729 0.886719Z" fill="#CBDDFF"/>
</g>
<defs>
<filter id="filter0_d_10_13" x="0.5625" y="0.294922" width="195.943" height="15.8398" filterUnits="userSpaceOnUse" color-interpolation-filters="sRGB">
<feFlood flood-opacity="0" result="BackgroundImageFix"/>
<feColorMatrix in="SourceAlpha" type="matrix" values="0 0 0 0 0 0 0 0 0 0 0 0 0 0 0 0 0 0 127 0" result="hardAlpha"/>
<feOffset dy="4"/>
<feGaussianBlur stdDeviation="2"/>
<feComposite in2="hardAlpha" operator="out"/>
<feColorMatrix type="matrix" values="0 0 0 0 0 0 0 0 0 0 0 0 0 0 0 0 0 0 0.25 0"/>
<feBlend mode="normal" in2="BackgroundImageFix" result="effect1_dropShadow_10_13"/>
<feBlend mode="normal" in="SourceGraphic" in2="effect1_dropShadow_10_13" result="shape"/>
</filter>
</defs>
</svg>
